<svg width="18" height="19" viewBox="0 0 18 19" fill="none" xmlns="http://www.w3.org/2000/svg">
<mask id="mask0_504_423" style="mask-type:alpha" maskUnits="userSpaceOnUse" x="0" y="0" width="18" height="19">
<rect x="0.983398" y="0.000610352" width="16.3355" height="18.3328" fill="#D9D9D9"/>
</mask>
<g mask="url(#mask0_504_423)">
<path d="M9.15052 12.8552L12.1136 9.52537C12.2292 9.39556 12.3646 9.33142 12.5197 9.33295C12.6748 9.33446 12.8102 9.3986 12.9259 9.52537C13.0416 9.65517 13.0994 9.80711 13.0994 9.98118C13.0994 10.1553 13.0416 10.3072 12.9259 10.437L9.56077 14.2182C9.49861 14.2879 9.43375 14.3386 9.36619 14.3701C9.29861 14.4017 9.22672 14.4174 9.15052 14.4174C9.07432 14.4174 9.00244 14.4017 8.93486 14.3701C8.86729 14.3386 8.80243 14.2879 8.74028 14.2182L5.37514 10.437C5.25949 10.3072 5.20166 10.1553 5.20166 9.98118C5.20166 9.80711 5.25949 9.65517 5.37514 9.52537C5.49081 9.39556 5.6262 9.33066 5.78132 9.33066C5.93644 9.33066 6.07183 9.39556 6.18749 9.52537L9.15052 12.8552ZM9.15052 7.91874L12.1136 4.58887C12.2292 4.45907 12.3646 4.39493 12.5197 4.39646C12.6748 4.39797 12.8102 4.46363 12.9259 4.59344C13.0416 4.72325 13.0994 4.87519 13.0994 5.04928C13.0994 5.22335 13.0416 5.37529 12.9259 5.5051L9.56077 9.28167C9.49861 9.35141 9.43375 9.40206 9.36619 9.43363C9.29861 9.46517 9.22672 9.48095 9.15052 9.48095C9.07432 9.48095 9.00244 9.46517 8.93486 9.43363C8.86729 9.40206 8.80243 9.35141 8.74028 9.28167L5.37514 5.5051C5.25949 5.37529 5.20166 5.22335 5.20166 5.04928C5.20166 4.87519 5.25949 4.72325 5.37514 4.59344C5.49081 4.46059 5.6262 4.39417 5.78132 4.39417C5.93644 4.39417 6.07318 4.46059 6.19156 4.59344L9.15052 7.91874Z" fill="white"/>
</g>
</svg>
